<svg width="24" height="23" viewBox="0 0 24 23" fill="none" xmlns="http://www.w3.org/2000/svg">
<path d="M11.7501 3.01436H5.15012C4.65 3.01436 4.17036 3.21303 3.81672 3.56667C3.46308 3.92031 3.2644 4.39995 3.2644 4.90007V18.1001C3.2644 18.6002 3.46308 19.0798 3.81672 19.4335C4.17036 19.7871 4.65 19.9858 5.15012 19.9858H18.3501C18.8502 19.9858 19.3299 19.7871 19.6835 19.4335C20.0372 19.0798 20.2358 18.6002 20.2358 18.1001V11.5001M17.7608 2.66077C18.1359 2.28568 18.6447 2.07495 19.1751 2.07495C19.7056 2.07495 20.2143 2.28568 20.5894 2.66077C20.9645 3.03586 21.1752 3.54459 21.1752 4.07505C21.1752 4.60551 20.9645 5.11425 20.5894 5.48934L11.7501 14.3286L7.97869 15.2715L8.92155 11.5001L17.7608 2.66077Z" stroke="#1C1C1E" stroke-width="1.57143" stroke-linecap="round" stroke-linejoin="round"/>
</svg>
