<svg width="35" height="36" viewBox="0 0 35 36" fill="none" xmlns="http://www.w3.org/2000/svg">
<g clip-path="url(#clip0_333_1043)">
<path d="M27.6272 13.8985L21.7939 8.06519M27.6272 13.8985L20.3378 21.1879C19.3771 22.1485 18.2112 22.9068 16.8726 23.1376C15.521 23.3708 13.8437 23.4484 13.0438 22.6485C12.2439 21.8486 12.3215 20.1712 12.5546 18.8197C12.7855 17.4811 13.5439 16.3151 14.5044 15.3545L21.7939 8.06519M27.6272 13.8985C27.6272 13.8985 32.0021 9.52352 29.0854 6.60685C26.1688 3.69019 21.7939 8.06519 21.7939 8.06519M29.8957 18.0001C29.8957 27.4792 26.979 30.3959 17.4998 30.3959C8.02067 30.3959 5.104 27.4792 5.104 18.0001C5.104 8.52091 8.02067 5.60425 17.4998 5.60425" stroke="#292929" stroke-width="2" stroke-linecap="round" stroke-linejoin="round"/>
</g>
<defs>
<clipPath id="clip0_333_1043">
<rect width="35" height="35" fill="white" transform="matrix(-1 0 0 1 35 0.5)"/>
</clipPath>
</defs>
</svg>
